HIERARCHY
ROOT root
{
	OFFSET 0.000000 0.000000 0.000000
	CHANNELS 6 Xposition Yposition Zposition Zrotation Yrotation Xrotation
	JOINT lhip
	{
		OFFSET 0.058581 -0.082280 -0.017664
		CHANNELS 3 Zrotation Yrotation Xrotation
		JOINT lknee
		{
			OFFSET 0.043451 -0.386469 0.008037
			CHANNELS 3 Zrotation Yrotation Xrotation
			JOINT lankle
			{
				OFFSET -0.014790 -0.426874 -0.037428
				CHANNELS 3 Zrotation Yrotation Xrotation
				JOINT ltoe
				{
					OFFSET 0.041054 -0.060286 0.122042
					CHANNELS 3 Zrotation Yrotation Xrotation
					End Site
					{
						OFFSET 0.000000 0.000000 0.000000
					}
				}
			}
		}
	}
	JOINT rhip
	{
		OFFSET -0.060310 -0.090513 -0.013543
		CHANNELS 3 Zrotation Yrotation Xrotation
		JOINT rknee
		{
			OFFSET -0.043257 -0.383688 -0.004843
			CHANNELS 3 Zrotation Yrotation Xrotation
			JOINT rankle
			{
				OFFSET 0.019056 -0.420046 -0.034562
				CHANNELS 3 Zrotation Yrotation Xrotation
				JOINT rtoe
				{
					OFFSET -0.034840 -0.062106 0.130323
					CHANNELS 3 Zrotation Yrotation Xrotation
					End Site
					{
						OFFSET 0.000000 0.000000 0.000000
					}
				}
			}
		}
	}
	JOINT lowerback
	{
		OFFSET 0.004439 0.124404 -0.038385
		CHANNELS 3 Zrotation Yrotation Xrotation
		JOINT upperback
		{
			OFFSET 0.004488 0.137956 0.026820
			CHANNELS 3 Zrotation Yrotation Xrotation
			JOINT chest
			{
				OFFSET -0.002265 0.056032 0.002855
				CHANNELS 3 Zrotation Yrotation Xrotation
				JOINT lowerneck
				{
					OFFSET -0.013390 0.211636 -0.033468
					CHANNELS 3 Zrotation Yrotation Xrotation
					JOINT upperneck
					{
						OFFSET 0.010113 0.088937 0.050410
						CHANNELS 3 Zrotation Yrotation Xrotation
						End Site
						{
							OFFSET 0.000000 0.000000 0.000000
						}
					}
				}
				JOINT lclavicle
				{
					OFFSET 0.071702 0.114000 -0.018898
					CHANNELS 3 Zrotation Yrotation Xrotation
					JOINT lshoulder
					{
						OFFSET 0.122921 0.045205 -0.019046
						CHANNELS 3 Zrotation Yrotation Xrotation
						JOINT lelbow
						{
							OFFSET 0.255332 -0.015649 -0.022946
							CHANNELS 3 Zrotation Yrotation Xrotation
							JOINT lwrist
							{
								OFFSET 0.265709 0.012698 -0.007375
								CHANNELS 3 Zrotation Yrotation Xrotation
								End Site
								{
									OFFSET 0.000000 0.000000 0.000000
								}
							}
						}
					}
				}
				JOINT rclavicle
				{
					OFFSET -0.082954 0.112472 -0.023707
					CHANNELS 3 Zrotation Yrotation Xrotation
					JOINT rshoulder
					{
						OFFSET -0.113228 0.046853 -0.008472
						CHANNELS 3 Zrotation Yrotation Xrotation
						JOINT relbow
						{
							OFFSET -0.260127 -0.014369 -0.031269
							CHANNELS 3 Zrotation Yrotation Xrotation
							JOINT rwrist
							{
								OFFSET -0.269108 0.006794 -0.006027
								CHANNELS 3 Zrotation Yrotation Xrotation
								End Site
								{
									OFFSET 0.000000 0.000000 0.000000
								}
							}
						}
					}
				}
			}
		}
	}
}
MOTION
Frames: 13
Frame Time: 0.033333
-0.815010 -0.553104 0.979817 114.460144 -0.903931 86.880614 -3.012037 1.188226 2.451867 -1.842427 -3.777024 7.427292 4.853907 13.256423 -16.239086 0.000000 -0.000000 0.000000 4.408200 0.002398 -2.301887 0.581902 -1.597314 15.365587 0.285690 -7.336013 -20.621470 0.000000 -0.000000 0.000000 0.863217 -1.128719 11.235563 1.273075 -0.467480 -2.044834 -0.191929 -1.974611 5.709747 0.922067 6.818708 -2.013404 -6.526348 1.501265 17.614619 -29.577331 8.625113 -0.088115 -59.538734 -5.900667 8.938497 15.268860 -38.183564 -0.803014 2.622232 -3.980781 -9.579896 30.826954 -2.033697 0.222536 55.663527 5.514554 16.641534 -16.153134 28.827898 -5.782497 1.276949 3.488456 -4.440270 
-0.812822 -0.553595 0.978780 113.959471 -0.813693 86.837733 -2.875755 0.768202 1.716915 -2.008277 -3.425927 9.323688 4.769102 13.968215 -17.000799 0.000000 -0.000000 0.000000 4.547442 0.394589 -2.256643 0.803455 -1.248392 15.780056 0.316858 -7.432048 -21.158118 0.000000 -0.000000 0.000000 0.938059 -1.083387 11.480790 1.202698 -0.144218 -2.053393 -0.217410 -1.791263 5.944133 0.953725 7.025614 -2.362484 -6.592503 1.638631 17.665685 -29.379939 8.633587 -0.220632 -59.707681 -5.849596 9.085141 15.444296 -38.472236 -0.633713 2.683580 -3.912618 -9.964115 30.620254 -1.949028 0.170559 56.034018 5.317274 16.856495 -16.388835 28.913263 -5.720243 1.197583 3.362578 -4.674112 
-0.810427 -0.553935 0.977829 113.632318 -0.777460 86.681795 -2.768665 0.301656 0.306867 -2.284974 -2.866676 12.861080 4.878568 14.272536 -18.035169 0.000000 -0.000000 0.000000 4.612102 0.200934 -2.176071 0.978014 -0.884588 16.288419 0.101618 -7.282979 -21.576123 0.000000 -0.000000 0.000000 0.955145 -0.689575 11.679727 1.209854 -0.155079 -1.924126 -0.224049 -1.747096 6.220140 0.961363 6.970962 -2.597048 -6.526315 1.651024 17.572527 -29.385417 8.533311 -0.233962 -59.664752 -5.887897 9.047744 15.589151 -38.758335 -0.649276 2.800785 -3.778722 -10.043971 30.654887 -1.873464 0.142859 55.986314 5.280566 16.747686 -16.301770 29.000548 -5.737341 1.300678 3.238673 -4.943026 
-0.805593 -0.554070 0.976317 113.140020 -0.637412 86.055123 -2.450597 -0.384930 -1.669514 -2.699455 -1.643045 18.643284 4.625755 14.672743 -18.834957 0.000000 -0.000000 0.000000 4.837706 0.044578 -1.298585 1.136294 -0.550011 16.548604 -0.128602 -6.898937 -22.150680 0.000000 -0.000000 0.000000 0.989787 -0.177660 12.539816 1.262360 -0.144645 -1.934079 -0.196054 -1.472388 6.330280 0.854059 6.976418 -2.829963 -6.427476 1.720108 17.626658 -29.470390 8.405698 -0.345128 -59.490052 -5.658538 8.948513 15.574504 -39.206032 -0.548500 2.745781 -3.717997 -10.183629 30.703188 -1.786424 0.317508 55.848654 5.189507 16.463169 -16.233491 29.167399 -5.887995 1.278423 3.213768 -5.415194 
-0.802243 -0.553892 0.975635 112.909268 -0.564260 85.551066 -2.169284 -1.053468 -3.230351 -3.163546 -0.785921 23.084896 4.417660 14.812546 -18.830829 0.000000 -0.000000 0.000000 4.952264 -0.123588 -0.526108 1.220606 -0.296314 16.553617 -0.333333 -6.648164 -22.439816 0.000000 -0.000000 0.000000 1.013807 0.280414 13.168861 1.294632 -0.172903 -1.933658 -0.166881 -1.346947 6.439753 0.795646 6.929682 -2.931726 -6.229155 1.791576 17.736341 -29.438547 8.332310 -0.426425 -59.498279 -5.592068 8.927277 15.485969 -39.410295 -0.394783 2.734586 -3.481409 -10.208660 30.755677 -1.784244 0.269266 55.758596 5.224549 16.277215 -16.084058 29.110325 -5.989570 1.237990 3.091321 -5.771041 
-0.796587 -0.553375 0.975457 112.480570 -0.555335 84.870537 -1.752484 -2.145268 -5.524320 -3.777268 0.643463 29.251828 4.013819 14.559671 -17.543686 0.000000 -0.000000 0.000000 5.090598 -0.483661 0.693819 1.185437 0.207784 16.329280 -0.754195 -6.370293 -22.719793 0.000000 -0.000000 0.000000 0.966611 1.113812 13.931583 1.374303 -0.241200 -1.827948 -0.126260 -1.218353 6.526129 0.636192 6.741357 -3.033434 -6.049229 1.834851 17.579972 -29.648020 8.360718 -0.611456 -59.321742 -5.393834 8.873772 15.485348 -39.649934 -0.444063 2.670260 -3.450181 -10.766572 30.900967 -1.839272 0.285601 55.662577 5.303889 16.072843 -16.040268 29.003646 -6.210686 1.124745 2.968993 -6.329435 
-0.790086 -0.552492 0.975219 111.889626 -0.607678 84.200767 -1.291342 -3.117966 -7.781642 -4.293849 2.252430 34.812887 3.720838 14.650338 -16.602581 0.000000 -0.000000 0.000000 5.063153 -1.174589 1.990427 1.168970 0.924608 15.984380 -1.166289 -5.923711 -23.068832 0.000000 -0.000000 0.000000 1.011664 2.190726 14.455231 1.383006 -0.350769 -1.514264 -0.174495 -1.018639 6.598609 0.518238 6.621735 -2.994398 -5.787769 1.902739 17.498885 -29.665497 8.287463 -0.625973 -59.323497 -5.215456 8.814512 15.612012 -39.798414 -0.349187 2.442154 -3.345116 -11.169378 30.904385 -1.723071 0.512312 55.813995 5.442463 15.696886 -16.250581 29.013674 -6.901072 1.079691 2.686739 -7.152076 
-0.782904 -0.550459 0.975245 111.336129 -0.793326 83.707657 -1.112897 -3.832100 -9.925570 -4.861593 2.662560 38.754580 4.262080 14.080100 -18.061419 0.000000 -0.000000 0.000000 4.841016 -1.579077 3.200797 1.119944 1.519403 15.617140 -1.037899 -5.709236 -23.663316 0.000000 -0.000000 0.000000 0.894388 2.980721 15.087919 1.299201 -0.241651 -1.637862 -0.189819 -0.737042 6.665382 0.498020 6.588451 -2.896966 -5.610463 1.886744 17.584851 -29.735674 8.337877 -0.496530 -59.218660 -4.793476 8.721732 15.587001 -40.103446 -0.238021 2.666992 -3.170333 -11.482244 31.009792 -1.517128 0.678494 55.860678 5.512393 15.378911 -16.323531 28.978866 -7.440462 0.896247 2.558011 -7.804931 
-0.774484 -0.547778 0.975422 110.515331 -1.042329 83.415648 -0.827744 -4.076858 -11.808600 -5.568263 3.043528 40.126031 4.036466 13.525855 -18.095353 0.000000 -0.000000 0.000000 4.509092 -2.038257 4.401836 1.024460 2.306214 15.016208 -0.949711 -5.207223 -23.588255 0.000000 -0.000000 0.000000 0.701327 3.765215 15.406323 1.153948 -0.040562 -1.594444 -0.178128 -0.305652 6.832531 0.538389 6.517270 -3.041553 -5.724355 1.658693 17.581137 -29.880129 8.646787 -0.769095 -59.045795 -4.344560 8.682860 15.476837 -39.925513 -0.110557 3.347383 -2.884121 -11.217561 31.168281 -1.394168 0.641430 55.846383 5.698330 15.376579 -16.227251 29.086077 -7.706223 0.454181 2.568161 -8.094988 
-0.762895 -0.543067 0.975775 109.830126 -1.324170 83.246082 -0.537212 -4.231750 -13.735616 -5.968047 3.232103 38.440770 3.667123 12.946707 -18.268402 0.000000 -0.000000 0.000000 3.957402 -2.481601 6.008023 1.030490 2.906601 13.867593 -0.698943 -4.683905 -23.855918 0.000000 -0.000000 0.000000 0.641675 4.465866 15.907248 0.855472 0.191172 -1.805858 -0.259700 0.118817 6.820764 0.469051 6.724788 -3.152438 -5.791780 1.407377 17.619320 -30.137831 9.219740 -1.100812 -58.891208 -3.710818 8.525182 15.464552 -39.351862 0.086915 3.639247 -3.028578 -10.953350 31.201176 -1.420179 0.554131 56.093101 6.070118 15.377340 -16.039188 29.230124 -7.794720 0.150405 2.704715 -8.269786 
-0.752972 -0.538808 0.975395 109.365968 -1.473032 83.303479 -0.305423 -4.244917 -15.045025 -5.574940 3.533730 34.929294 3.526883 12.913881 -18.072974 0.000000 -0.000000 0.000000 3.564954 -2.836433 7.104847 1.041624 3.423998 13.058026 -0.518057 -4.258306 -24.036056 0.000000 -0.000000 0.000000 0.693967 4.964223 16.170638 0.560807 0.311707 -1.885450 -0.326477 0.448467 6.751712 0.364207 7.006573 -3.356273 -5.836889 1.265355 17.560836 -30.149878 9.565085 -1.226589 -58.911674 -3.169555 8.404898 15.441923 -38.961045 -0.099391 3.648560 -3.115987 -10.950628 31.179770 -1.315694 0.733740 56.325729 6.417752 15.482197 -16.122557 29.839306 -7.875393 -0.026893 2.837368 -8.185636 
-0.742114 -0.533203 0.974943 109.073173 -1.498185 83.552662 -0.102277 -4.183556 -16.053613 -4.862163 3.722722 30.109896 2.903984 13.183375 -17.663085 0.000000 -0.000000 0.000000 3.394232 -3.097872 8.005887 0.941605 3.859932 12.378084 -0.716734 -4.294934 -24.367545 0.000000 -0.000000 0.000000 0.615587 5.166052 16.853615 0.341918 0.353508 -2.227754 -0.184796 0.724413 6.017592 0.378359 7.406486 -3.677018 -6.307034 1.088487 17.839668 -30.593500 10.391014 -1.858955 -58.651691 -2.046338 8.264392 14.972021 -38.471615 0.199172 4.293836 -3.374360 -10.547098 31.268496 -1.296236 0.852343 56.143284 6.532191 15.972597 -15.766796 30.493888 -7.466546 -1.045078 3.599602 -7.518752 
-0.729632 -0.527047 0.973401 108.967987 -1.558388 83.472444 -0.098424 -4.049688 -16.263170 -4.209851 3.341219 24.411521 2.471788 13.005266 -16.647509 0.000000 -0.000000 0.000000 3.153477 -3.249237 9.463511 0.853579 4.109784 11.532797 -0.579864 -4.239163 -24.589463 0.000000 -0.000000 0.000000 0.647520 5.372323 17.090999 0.118034 0.469375 -1.926583 -0.201922 0.949029 5.924701 0.348347 7.663149 -3.946817 -6.498845 0.712828 17.708970 -30.763581 10.521551 -2.022017 -58.614076 -1.700054 8.222160 14.998446 -37.566364 0.083498 4.003674 -3.519128 -10.205315 31.243410 -1.056719 0.695269 56.196941 7.150705 16.125604 -15.546051 30.921544 -7.462078 -1.008886 3.807184 -7.401370 
